<svg width="237" height="112" viewBox="0 0 237 112" fill="none" xmlns="http://www.w3.org/2000/svg">
<path fill-rule="evenodd" clip-rule="evenodd" d="M190.858 38.9C189.664 38.9 188.496 38.5433 187.505 37.8756L152.156 14.0527L111.858 6.11528L71.5608 14.0527L37.1838 37.2203L14.0436 71.6435L7.29354 106H184V70.5C184 57.0277 192.676 48.05 202.934 48.05C213.191 48.05 221.867 57.0277 221.867 70.5V106H231V70.5C231 63.2741 228.919 55.2013 224.407 49.0976C220.067 43.225 213.312 38.9 202.934 38.9H190.858ZM0 112L8.38938 69.3L32.8584 32.9L69.2124 8.4L111.858 0L154.504 8.4L190.858 32.9H202.934C227.642 32.9 237 54.05 237 70.5V112H215.867V70.5C215.867 59.65 209.226 54.05 202.934 54.05C196.642 54.05 190 59.65 190 70.5V112H0Z" fill="white"/>
</svg>
